<?xml version="1.0" encoding="utf-8"?>
<!-- Generator: Adobe Illustrator 27.3.1, SVG Export Plug-In . SVG Version: 6.00 Build 0)  -->
<svg version="1.1" id="Layer_1" xmlns="http://www.w3.org/2000/svg" xmlns:xlink="http://www.w3.org/1999/xlink" x="0px" y="0px"
	 width="200px" height="200px" viewBox="0 0 200 200" style="enable-background:new 0 0 200 200;" xml:space="preserve">
<style type="text/css">
	.st0{fill:#169BD5;}
</style>
<g>
	<path class="st0" d="M200,127.7c-21.9,9.1-43.8,18.2-65.7,27.3c-3.1,1.3-3.1,1.3-5.5-1.1c-7.5-7.5-14.9-14.9-22.5-22.5
		c0.5-0.4,0.9-0.8,1.3-1.1c21.5-15.7,43.1-31.5,64.6-47.2c1.1-0.8,2.1-1,3.4-0.8c6.1,1.1,12.3,2.1,18.5,3.1c1.2,0.2,1.6,0.5,1.7,1.8
		c1.2,12.3,2.5,24.6,3.8,36.9c0.1,0.6,0.2,1.1,0.4,1.7C200,126.4,200,127.1,200,127.7z"/>
	<path class="st0" d="M74.2,0c4.4,0.5,8.9,1.1,13.3,1.6c8.4,0.9,16.8,1.8,25.2,2.6c1.1,0.1,1.5,0.4,1.7,1.6c0.9,6,2.1,12.1,3,18.1
		c0.1,1-0.1,2.3-0.6,3C101,48.7,85.1,70.5,69.2,92.3c-0.2,0.3-0.5,0.6-0.8,1c-0.4-0.3-0.7-0.6-1-0.9c-7.5-7.5-15-15-22.5-22.5
		c-0.8-0.8-1.1-1.3-0.6-2.5C53.6,45,62.9,22.5,72.3,0C72.9,0,73.6,0,74.2,0z"/>
	<path class="st0" d="M0,156.6c0.4-2,0.8-4.1,1.3-6c1.8-6.7,5.1-12.5,10-17.4c1.6-1.7,3.3-3.4,4.7-4.9c18.6,18.6,37,37,55.6,55.6
		c-5.4,6.2-11.7,11.6-20.1,14.2c-2.8,0.8-5.7,1.3-8.5,2c-2.5,0-4.9,0-7.4,0c-0.4-0.1-0.7-0.3-1.1-0.3c-16.6-2.1-29.7-14-33.5-30.3
		c-0.3-1.5-0.6-3-1-4.5C0,162.1,0,159.4,0,156.6z"/>
	<path class="st0" d="M98,122.8c-7.1-7.1-14-14-21.1-21.1c2.1-2.9,4.3-5.9,6.5-9C95.7,75.8,108,59,120.3,42.1c0.7-1,1.4-1.7,2.8-1.5
		c10,1.4,20.1,2.8,30.1,4.2c1.2,0.2,1.7,0.5,1.9,1.8c1.3,10,2.7,20,4.1,30c0.1,0.7-0.3,1.7-0.8,2.1c-19.9,14.6-39.9,29.2-59.9,43.8
		C98.3,122.6,98.1,122.7,98,122.8z"/>
	<path class="st0" d="M65.8,160.9c10.4-7.6,20.6-15,30.6-22.3c7.6,7.6,15.1,15.1,22.7,22.7c-0.4,0.2-0.9,0.5-1.5,0.7
		c-11.4,4.7-22.8,9.5-34.2,14.2c-0.8,0.3-1.5,0.8-2.4-0.1C76,171.1,71,166.1,65.8,160.9z"/>
	<path class="st0" d="M60.9,103.6c-7.2,9.8-14.6,19.9-22.1,30.3c-0.6-0.6-1.2-1.1-1.7-1.7c-4.3-4.3-8.5-8.6-12.8-12.8
		c-0.7-0.7-1.1-1.2-0.6-2.3c5-11.9,9.9-23.7,14.8-35.6c0.1-0.2,0.2-0.3,0.1-0.2C45.9,88.6,53.3,96,60.9,103.6z"/>
	<path class="st0" d="M57.5,152.5c-3.5-3.5-6.8-6.8-10.2-10.3c7.4-10.1,14.9-20.3,22.2-30.4c6.1,6.2,12.2,12.2,18.4,18.5
		C77.9,137.5,67.7,144.9,57.5,152.5z"/>
</g>
</svg>
