<?xml version="1.0" encoding="utf-8"?>
<!-- Generator: Adobe Illustrator 27.3.1, SVG Export Plug-In . SVG Version: 6.00 Build 0)  -->
<svg version="1.1" id="Layer_1" xmlns="http://www.w3.org/2000/svg" xmlns:xlink="http://www.w3.org/1999/xlink" x="0px" y="0px"
	 width="200px" height="200px" viewBox="0 0 200 200" style="enable-background:new 0 0 200 200;" xml:space="preserve">
<style type="text/css">
	.st0{fill:#169BD5;}
</style>
<g>
	<path class="st0" d="M71.7,126.6c1.1-6.7,2.3-13.1,3.4-19.9c1,0,2.2,0,3.4,0c3.8-0.1,6.6-3,6.6-6.7c0-3.7-2.8-6.5-6.6-6.7
		c-1.2,0-2.4,0-3.4,0c-1.2-6.7-2.3-13.2-3.4-19.9c0.4-0.1,1.1-0.2,1.7-0.4c3.3-0.9,5.3-3.8,4.9-7.2c-0.3-3.1-3.1-6.1-6.3-5.7
		c-4.5,0.6-6.2-1.6-8-5.3c-5.5-11.3-13.3-20.8-22.7-29c-1.2-1-2.4-2.1-3.9-3.4C52.9,9.7,70.4,2.2,90.2,0.4c27-2.5,51,5,72.2,22.3
		c-1.8,1.6-3.4,3-4.9,4.5c-9.9,8.8-17.7,19.2-23.2,31.2c-0.6,1.2-1.2,1.9-2.6,1.7c-1-0.1-1.9,0-2.9,0c-3.9,0.1-6.7,2.5-7,6
		c-0.3,3.8,2.1,6.7,6.1,7.3c0.2,0,0.4,0.1,0.6,0.1c-1.1,6.6-2.3,13.2-3.4,19.9c-2.8,0.1-6.2-0.5-8.3,2.3c-0.9,1.2-1.5,2.8-1.6,4.3
		c-0.3,2.6,1,4.8,3.4,5.7c2,0.8,4.4,0.9,6.6,1.3c1.1,6.3,2.2,12.9,3.4,19.5c-0.5,0.1-1.2,0.2-2,0.4c-3.2,1-5,3.8-4.7,7.2
		c0.3,3.1,2.9,5.6,6.1,5.8c0.1,0,0.3,0,0.4,0c4.1-0.9,5.9,1.3,7.6,4.8c6.1,12.6,14.9,23.2,25.7,32.1c0.3,0.3,0.6,0.5,0.9,0.8
		c-34,29.3-89.2,30.1-124.6,0.1c1.6-1.4,3.2-2.8,4.8-4.2c9.8-9,17.5-19.5,23.1-31.6c0.7-1.6,1.6-2.2,3.3-2c0.8,0.1,1.7,0,2.5,0
		c3.8-0.1,6.7-2.6,6.9-6.1c0.3-3.7-2.1-6.6-6-7.2C72.1,126.7,71.8,126.6,71.7,126.6z"/>
	<path class="st0" d="M172.3,168.6c-9.9-7.8-17.8-17.2-23.8-28.4c2.9-0.5,5.2-1.8,6.2-4.7c1.4-4.1-1.5-8.5-6-8.8
		c-1.9-0.1-3.9,0-6.4,0c-1.3-6.5-2.6-13-4-20c1.5,0,2.5,0,3.5,0c3.8-0.1,6.6-3,6.6-6.7c0-3.7-2.9-6.5-6.6-6.6c-0.9,0-1.8,0-3,0
		c0.4-6.9,1.8-13.5,3.9-20c1.8,0,3.4,0,5.1,0c4,0,6.9-2.3,7.3-5.7c0.4-3.7-1.6-6.5-5.6-7.6c-0.2-0.1-0.4-0.1-0.8-0.2
		c5.8-11.2,14-20.2,23.7-28.1C209.4,69.3,209,130.6,172.3,168.6z"/>
	<path class="st0" d="M28,31.7c9.7,7.9,17.7,16.9,23.4,28.1c-3,0.5-5.2,1.8-6.2,4.7c-1.4,4.2,1.6,8.5,6.1,8.7c1.9,0.1,3.9,0,6.4,0
		c1.3,6.6,2.6,13.1,4,20c-1.6,0-2.6,0-3.6,0c-3.6,0.2-6.4,3-6.4,6.6c0,3.5,2.8,6.5,6.4,6.7c1,0.1,2,0,3.7,0c-1.4,6.9-2.7,13.4-4,20
		c-2.2,0-3.8,0-5.5,0c-3.9,0-6.8,2.3-7.2,5.8c-0.4,3.7,1.7,6.5,5.7,7.5c0.2,0.1,0.4,0.1,0.8,0.2c-5.8,11.3-13.9,20.6-23.7,28.4
		C-8.3,132-10.2,70.1,28,31.7z"/>
</g>
</svg>
