<?xml version="1.0" encoding="utf-8"?>
<!-- Generator: Adobe Illustrator 27.3.1, SVG Export Plug-In . SVG Version: 6.00 Build 0)  -->
<svg version="1.1" id="Layer_1" xmlns="http://www.w3.org/2000/svg" xmlns:xlink="http://www.w3.org/1999/xlink" x="0px" y="0px"
	 width="200px" height="200px" viewBox="0 0 200 200" style="enable-background:new 0 0 200 200;" xml:space="preserve">
<style type="text/css">
	.st0{fill:#169BD5;}
</style>
<g>
	<path class="st0" d="M129.8,18.5c5.6,3.2,11.1,6.3,16.7,9.5c-5.1,8.8-10.1,17.5-15.1,26.1C111.2,88.9,91.1,123.7,71,158.5
		c-0.7,1.3-1.5,2.7-2.6,3.5c-1.2,1-2.9,1.9-4.4,1.9c-16.7,0.1-33.3,0.1-50,0.1c-7.2,0-13.2-5.4-13.9-12.6c-0.8-7.1,4-13.5,11.2-15
		c1.4-0.3,2.8-0.3,4.2-0.3c14.7,0,29.4,0,44.1,0c1.6,0,2.5-0.5,3.3-1.9c21.8-37.9,43.7-75.8,65.6-113.7
		C128.9,20,129.3,19.3,129.8,18.5z"/>
	<path class="st0" d="M114.8,95.6c2,3.5,3.9,6.7,5.7,9.9c5.6,9.6,11.2,19.3,16.7,29c0.8,1.4,1.6,1.8,3.2,1.8
		c15.3-0.1,30.6-0.1,45.9,0c7.8,0.1,13.8,6.5,13.7,14.2c-0.1,7.3-6,13.5-13.3,13.6c-17.1,0.1-34.1,0.1-51.2,0
		c-2.8,0-4.5-2.1-5.8-4.4c-4.1-7-8.1-14-12.2-21.1c-4.3-7.4-8.5-14.8-12.8-22.1c-0.7-1.2-0.8-2-0.1-3.3
		C108,107.5,111.3,101.7,114.8,95.6z"/>
	<path class="st0" d="M100.9,155.2c6.9-0.4,13.9,1.1,20.5,4.5c3.4,1.8,6,4.5,6,8.4c0,4-2.8,6.7-6.4,8.3c-14,6.3-28,6.3-42-0.3
		c-0.5-0.3-1.1-0.5-1.6-0.9c-2.7-1.7-4.8-3.9-4.7-7.2c0.2-3.5,2.1-6.2,5.2-7.8C85.1,156.4,90.9,155.1,100.9,155.2z"/>
	<path class="st0" d="M85.2,82.7C74.9,64.8,64.7,47.2,54.4,29.3c5.6-3.1,11-6.2,16.7-9.5c0.4,0.7,0.8,1.3,1.2,1.9
		c7.7,13.4,15.4,26.7,23.2,40.1c0.7,1.2,0.8,2,0,3.3C92,70.8,88.8,76.6,85.2,82.7z"/>
	<path class="st0" d="M72.9,180.3c18.2,9.7,36.3,9.8,54.8,0c0,2.2,0.1,4.4,0,6.5c-0.1,3.3-2,5.6-4.7,7.3c-4.6,2.8-9.6,4.4-15,4.9
		c-9.5,1-18.9,0.6-27.8-3.5c-5.2-2.4-7.8-6.3-7.5-12.1c0.1-0.9,0.1-1.9,0.1-2.8C72.7,180.5,72.8,180.4,72.9,180.3z"/>
	<path class="st0" d="M67.8,14.3c-5.6,3.2-11,6.3-16.8,9.5c-2-3.7-4.2-7-5.7-10.7C43.6,8.8,45.9,3.8,50,1.7c4.2-2.1,9.3-1,12.1,2.8
		c0.4,0.6,0.8,1.2,1.2,1.9C64.8,8.9,66.2,11.5,67.8,14.3z"/>
	<path class="st0" d="M133,12.9c1.7-2.9,3.1-5.6,4.8-8.1c2.8-4.2,8.4-5.4,12.7-2.8c4.4,2.6,6.1,8,3.7,12.6c-1.4,2.6-2.9,5.1-4.5,7.9
		C144.1,19.2,138.7,16.1,133,12.9z"/>
</g>
</svg>
