<?xml version="1.0" encoding="utf-8"?>
<!-- Generator: Adobe Illustrator 27.3.1, SVG Export Plug-In . SVG Version: 6.00 Build 0)  -->
<svg version="1.1" id="Layer_1" xmlns="http://www.w3.org/2000/svg" xmlns:xlink="http://www.w3.org/1999/xlink" x="0px" y="0px"
	 width="200px" height="200px" viewBox="0 0 200 200" style="enable-background:new 0 0 200 200;" xml:space="preserve">
<style type="text/css">
	.st0{fill:#169BD5;}
</style>
<g>
	<path class="st0" d="M574.7-213.1c5.6,3.2,11.1,6.3,16.7,9.5c-5.1,8.8-10.1,17.5-15.1,26.1c-20.1,34.8-40.2,69.6-60.4,104.4
		c-0.7,1.3-1.5,2.7-2.6,3.5c-1.2,1-2.9,1.9-4.4,1.9c-16.7,0.1-33.3,0.1-50,0.1c-7.2,0-13.2-5.4-13.9-12.6c-0.8-7.1,4-13.5,11.2-15
		c1.4-0.3,2.8-0.3,4.2-0.3c14.7,0,29.4,0,44.1,0c1.6,0,2.5-0.5,3.3-1.9c21.8-37.9,43.7-75.8,65.6-113.7
		C573.8-211.7,574.2-212.3,574.7-213.1z"/>
	<path class="st0" d="M559.8-136c2,3.5,3.9,6.7,5.7,9.9c5.6,9.6,11.2,19.3,16.7,29c0.8,1.4,1.6,1.8,3.2,1.8
		c15.3-0.1,30.6-0.1,45.9,0c7.8,0.1,13.8,6.5,13.7,14.2c-0.1,7.3-6,13.5-13.3,13.6c-17.1,0.1-34.1,0.1-51.2,0
		c-2.8,0-4.5-2.1-5.8-4.4c-4.1-7-8.1-14-12.2-21.1c-4.3-7.4-8.5-14.8-12.8-22.1c-0.7-1.2-0.8-2-0.1-3.3
		C552.9-124.1,556.2-129.9,559.8-136z"/>
	<path class="st0" d="M545.8-76.5c6.9-0.4,13.9,1.1,20.5,4.5c3.4,1.8,6,4.5,6,8.4c0,4-2.8,6.7-6.4,8.3c-14,6.3-28,6.3-42-0.3
		c-0.5-0.3-1.1-0.5-1.6-0.9c-2.7-1.7-4.8-3.9-4.7-7.2c0.2-3.5,2.1-6.2,5.2-7.8C530-75.2,535.9-76.5,545.8-76.5z"/>
	<path class="st0" d="M530.2-148.9c-10.4-17.9-20.5-35.5-30.9-53.4c5.6-3.1,11-6.2,16.7-9.5c0.4,0.7,0.8,1.3,1.2,1.9
		c7.7,13.4,15.4,26.7,23.2,40.1c0.7,1.2,0.8,2,0,3.3C537-160.8,533.7-155,530.2-148.9z"/>
	<path class="st0" d="M517.8-51.3c18.2,9.7,36.3,9.8,54.8,0c0,2.2,0.1,4.4,0,6.5c-0.1,3.3-2,5.6-4.7,7.3c-4.6,2.8-9.6,4.4-15,4.9
		c-9.5,1-18.9,0.6-27.8-3.5c-5.2-2.4-7.8-6.3-7.5-12.1c0.1-0.9,0.1-1.9,0.1-2.8C517.7-51.2,517.7-51.2,517.8-51.3z"/>
	<path class="st0" d="M512.8-217.4c-5.6,3.2-11,6.3-16.8,9.5c-2-3.7-4.2-7-5.7-10.7c-1.8-4.3,0.5-9.3,4.6-11.4
		c4.2-2.1,9.3-1,12.1,2.8c0.4,0.6,0.8,1.2,1.2,1.9C509.7-222.7,511.2-220.1,512.8-217.4z"/>
	<path class="st0" d="M577.9-218.7c1.7-2.9,3.1-5.6,4.8-8.1c2.8-4.2,8.4-5.4,12.7-2.8c4.4,2.6,6.1,8,3.7,12.6
		c-1.4,2.6-2.9,5.1-4.5,7.9C589.1-212.4,583.6-215.5,577.9-218.7z"/>
</g>
<g>
	<path class="st0" d="M0,166.8c0-0.9,0-1.8,0-2.7c1-1.4,1.8-2.9,2.9-4c12.4-12.5,24.8-24.9,37.2-37.3c7.8-7.8,12.7-17.2,15.6-27.7
		c0.9-3.2,1.8-6.5,1.2-10c-1.1-6.9-0.9-13.9,0.7-20.8C65.2,32.5,84.8,12,115.9,2.4c4.1-1.2,8.4-1.6,12.6-2.4c3.1,0,6.2,0,9.4,0
		c0.6,0.1,1.3,0.3,1.9,0.4c14.1,1.6,26.1,7.3,35.2,18.4c12,14.6,14.6,31.5,10.7,49.5c-4.6,21-16.5,37.3-34,49.4
		c-14.7,10.1-30.9,14.8-48.9,12.9c-1.3-0.1-2.8-0.5-4.1-0.3c-12.9,2.3-24.2,7.7-33.5,17c-12.4,12.5-24.9,25-37.3,37.5
		c-4,4.1-6.8,4.1-10.9,0c-4.5-4.5-9.1-9-13.5-13.5C2.2,169.8,1.1,168.3,0,166.8z M74.2,99.9c3.1,5.1,7.2,9.3,12.2,12.6
		c1,0.6,1.5,0.3,2.1-0.4c3.1-3.1,6.1-6.2,9.2-9.3c2.4-2.4,4.8-4.8,7-7c-4.5-4.5-8.9-8.9-13.2-13.2C85.9,88.3,80.1,94.1,74.2,99.9z
		 M152,48.2c5.7-5.7,11.4-11.4,17.3-17.3c-3.2-5.3-7.6-9.7-12.8-12.9c-5.9,6-11.7,11.8-17.3,17.4C143.4,39.6,147.8,43.9,152,48.2z
		 M83.6,36c-2.7,4.1-5.4,8.3-8,12.5c-0.2,0.3,0.1,1.1,0.4,1.4c5.1,5.2,10.3,10.4,15.3,15.4c3.8-3.7,7.4-7.3,10.9-10.7
		C96.2,48.6,90.1,42.5,83.6,36z M152.2,65.6c-3.7,3.6-7.3,7.2-10.8,10.6c6.1,6.1,12.2,12.2,18.6,18.6c2.9-4.2,5.8-8.6,8.6-12.8
		C162.9,76.3,157.5,71,152.2,65.6z M138.6,112.1c4.1-2.8,8.4-5.7,12.6-8.6c-6.4-6.5-12.5-12.6-18.5-18.6c-3.5,3.6-7.1,7.2-10.6,10.7
		C127.4,100.9,132.8,106.3,138.6,112.1z M122,35.2c-5.3-5.2-10.5-10.5-15.9-15.8c-0.2-0.2-1-0.3-1.3-0.1c-4.1,2.6-8.3,5.3-12.2,7.9
		c6.5,6.5,12.6,12.6,18.7,18.6C114.6,42.4,118.2,38.9,122,35.2z M64.7,106.9c-3.6,6.3-7.2,12.5-10.7,18.8c2.6,2.6,5.4,5.4,8,7.9
		c6.2-3.6,12.4-7.2,18.6-10.9C74.2,118.7,68.8,113.3,64.7,106.9z M130.6,44.2c-3.6,3.6-7.2,7.2-10.7,10.7c4.2,4.2,8.6,8.5,12.8,12.8
		c3.5-3.6,7.1-7.2,10.7-10.8C139.1,52.6,134.7,48.3,130.6,44.2z M113.4,87c3.6-3.6,7.1-7.1,10.6-10.6c-4.3-4.3-8.7-8.7-13-12.9
		c-3.5,3.5-7.1,7.1-10.6,10.6C104.7,78.2,109,82.6,113.4,87z M82.7,73.9c-4-4-8.2-8.2-12.4-12.4c-2.4,8.5-3,17.2-1.1,25.9
		C73.8,82.8,78.4,78.3,82.7,73.9z M125.7,117c-4.3-4.3-8.4-8.5-12.4-12.4c-4.4,4.4-8.9,8.9-13.5,13.4
		C108.5,120,117.2,119.4,125.7,117z M117.8,14c4.3,4.3,8.5,8.5,12.4,12.4c4.4-4.5,9-9,13.5-13.5C135.1,10.9,126.5,11.5,117.8,14z
		 M173.4,69.5c2.4-8.6,3-17.3,1.1-25.8c-4.6,4.5-9.2,9-13.6,13.4C164.9,61.1,169.1,65.2,173.4,69.5z"/>
	<path class="st0" d="M200,167.6c-5.2-3-10.5-5.8-16.3-7.4c-17.3-4.7-33.6-2.3-48.8,7.1c-0.4,0.3-0.9,0.6-1.3,0.8c0,0-0.1,0-0.3-0.1
		c-0.4-3.8,0.1-7.6,1.2-11.2c4.5-15,18.7-24.7,34.8-23.7c14.8,0.9,28,13,30.4,28c0.1,0.4,0.2,0.9,0.4,1.3
		C200,164.2,200,165.9,200,167.6z"/>
	<path class="st0" d="M163.3,200c-4.1-1.3-8.4-2.2-12.3-4c-6.6-3.1-11.3-8.4-14.6-15.1c3.6-3.2,7.6-5.7,12-7.5
		c16.8-6.7,32.5-4.8,47.3,5.5c1.2,0.9,1.3,1.6,0.6,2.8c-5.5,10.1-13.9,16.1-25.3,17.9c-0.4,0.1-0.7,0.2-1.1,0.3
		C167.7,200,165.5,200,163.3,200z"/>
</g>
<path class="st0" d="M683.1,299.7c11.3,0,22.6-0.1,33.9-0.1c1.8,0,3.6,0,5.7,0c0-3.4,0-6.6,0-9.9c40.2,0,80.1,0,120.4,0
	c0,3.3,0,6.5,0,9.9c13.4,0,26.4,0,40,0c-0.4,5.8-0.5,11.4-1.2,16.9c-1.4,11.5-4.5,22.4-10.5,32.4c-10.7,17.9-26.5,26.1-47.2,25.1
	c-2.4-0.1-3.8,0.5-5.3,2.4c-6.1,7.9-13.5,14.4-22.9,18.3c-0.6,0.2-1.2,1.1-1.2,1.6c-0.1,9,0,18,0,27c0,0.1,0.1,0.2,0.2,0.6
	c9.4,0,18.8,0,28.5,0c0,6.1,0,12,0,18c3.3,0,6.3,0,9.5,0c0,3.4,0,6.6,0,10c-33.3,0-66.8,0-100.3,0c0-3.2,0-6.4,0-9.9
	c3.1,0,6.1,0,9.4,0c0-6.1,0-11.9,0-18c9.7,0,19.2,0,28.9,0c0-0.9,0-1.5,0-2.2c0-8.3,0-16.5,0-24.8c0-1,0.1-1.8-1.2-2.3
	c-9.7-3.9-17.2-10.6-23.4-18.8c-1.2-1.6-2.3-2-4.2-1.9c-22,1.7-40.6-9.3-50.2-29.3c-5-10.4-7.6-21.4-8.7-32.8
	c-0.1-0.6-0.2-1.1-0.3-1.7C683.1,306.7,683.1,303.2,683.1,299.7z M736.9,361c-1.4-2.9-2.7-5.5-3.9-8.1c-5.4-12.3-8-25.2-9.3-38.5
	c-0.1-1.4-0.6-1.8-2-1.8c-7.8,0.1-15.6,0-23.4,0c-0.5,0-1,0.1-1.5,0.1c0,0.5,0,0.8,0,1.1c1,8.2,3,16.3,6.5,23.8
	c3.9,8.3,9.2,15.3,17.5,19.5C725.8,359.6,731.1,360.9,736.9,361z M869.4,312.6c-1,0-1.7,0-2.4,0c-6.6,0-13.3,0-19.9,0
	c-4.7,0-4.7,0-5.2,4.8c-1.3,11.8-3.8,23.3-8.5,34.3c-1.3,3.1-2.8,6.1-4.3,9.3c11.6-0.5,21-4.8,28-14c5.9-7.8,9-16.8,11-26.2
	C868.5,318.2,868.9,315.5,869.4,312.6z"/>
<g>
	<path class="st0" d="M780.4,224.5c-3.7-0.4-7.4-0.6-11-1.1c-22.4-3.1-41.6-12.8-57.5-28.9c-4-4-7.4-8.5-11-12.9
		c41.3,21.8,81.6,20.5,121.3-4.3c0.1,0.2,0.4,0.5,0.5,0.9c4.3,10.5,6.8,21.4,7.4,32.8c0.1,1.4-0.4,2-1.5,2.5
		c-12.7,6.4-26.2,10-40.4,10.7c-0.8,0-1.5,0.2-2.3,0.3C784,224.5,782.2,224.5,780.4,224.5z"/>
	<path class="st0" d="M683.1,117.5c0.6-4.4,1.1-8.8,2-13.1c5.5-26.4,19.5-47.2,41.5-62.6c13.3-9.3,28.1-14.7,44.2-16.8
		c0.9-0.1,1.7-0.1,2.8-0.2c-39.1,25.1-57.8,60.5-55.9,107.1c-4.7-1-9.5-1.6-14.1-3.1c-6.9-2.3-13.7-5.2-20.5-7.8
		C683.1,119.8,683.1,118.6,683.1,117.5z"/>
	<path class="st0" d="M883.1,130.4c-0.5,3.9-0.9,7.8-1.6,11.7c-1.4,8.2-3.9,16.2-7.5,24c-1.9-46.7-23.3-80.8-64.7-102.6
		c2.8-3.2,5.6-6.5,8.6-9.6c5-5.2,10.6-9.7,16.7-13.7c0.9-0.6,1.5-0.7,2.4-0.1c24.2,16.1,39.2,38.3,44.5,66.9c0.7,3.8,1,7.6,1.6,11.3
		C883.1,122.3,883.1,126.3,883.1,130.4z"/>
	<path class="st0" d="M802.8,73.7c10.9,4.9,20.7,11.5,29.1,19.9c20.3,20.3,30.4,44.9,30,73.6c-0.1,7.1-1.7,14.2-2.6,21.3
		c-0.1,0.5-0.3,1-0.6,1.4c-5,5.8-10.7,11-17.1,15.6c-0.6-3.7-1.1-7.2-1.8-10.7c-6.3-30.8-22.6-55-48.8-72.4c-1.5-1-2-1.9-1.9-3.7
		c0.9-14.8,4.8-28.8,11.8-41.9c0.4-0.8,0.9-1.6,1.3-2.4C802.4,74.2,802.5,74,802.8,73.7z"/>
	<path class="st0" d="M823.8,32.9c-4.2,3.7-8.5,7-12.3,10.8c-18.4,18-29.5,39.7-33.1,65.2c-0.5,3.4-0.6,6.9-1.1,10.3
		c-0.1,0.7-0.6,1.6-1.2,1.9c-14.2,7.4-29.3,11.2-45.3,11.3c-0.3,0-0.5-0.1-1.2-0.2c-0.1-4.2-0.4-8.5-0.3-12.8
		c0.5-17.4,5.1-33.6,14.1-48.5c13.1-21.8,31.9-36.6,56.1-44.4c1.2-0.4,2.7-0.4,4-0.1C810.5,27.8,817.2,30,823.8,32.9z"/>
	<path class="st0" d="M817.1,166.7c-5.5,3.1-10.7,6.3-16.1,8.9c-14.9,7.2-30.8,10.3-47.3,9.4c-24.8-1.3-46.3-10.5-64.4-27.5
		c-0.4-0.4-0.9-0.8-1-1.4c-2.4-7-3.9-14.3-4.7-21.7c3.9,1.5,7.6,3.1,11.4,4.3c29.5,9.4,58.1,6.9,85.8-6.7c1.6-0.8,2.6-0.7,4,0.2
		C798.1,141,808.8,152.2,817.1,166.7z"/>
</g>
<g>
	<path class="st0" d="M192.4-192.4c-21.9,9.1-43.8,18.2-65.7,27.3c-3.1,1.3-3.1,1.3-5.5-1.1c-7.5-7.5-14.9-14.9-22.5-22.5
		c0.5-0.4,0.9-0.8,1.3-1.1c21.5-15.7,43.1-31.5,64.6-47.2c1.1-0.8,2.1-1,3.4-0.8c6.1,1.1,12.3,2.1,18.5,3.1c1.2,0.2,1.6,0.5,1.7,1.8
		c1.2,12.3,2.5,24.6,3.8,36.9c0.1,0.6,0.2,1.1,0.4,1.7C192.4-193.7,192.4-193.1,192.4-192.4z"/>
	<path class="st0" d="M66.6-320.2c4.4,0.5,8.9,1.1,13.3,1.6c8.4,0.9,16.8,1.8,25.2,2.6c1.1,0.1,1.5,0.4,1.7,1.6
		c0.9,6,2.1,12.1,3,18.1c0.1,1-0.1,2.3-0.6,3c-15.9,21.8-31.8,43.6-47.7,65.5c-0.2,0.3-0.5,0.6-0.8,1c-0.4-0.3-0.7-0.6-1-0.9
		c-7.5-7.5-15-15-22.5-22.5c-0.8-0.8-1.1-1.3-0.6-2.5c9.4-22.5,18.7-45,28.1-67.5C65.3-320.2,66-320.2,66.6-320.2z"/>
	<path class="st0" d="M-7.6-163.5c0.4-2,0.8-4.1,1.3-6c1.8-6.7,5.1-12.5,10-17.4c1.6-1.7,3.3-3.4,4.7-4.9c18.6,18.6,37,37,55.6,55.6
		c-5.4,6.2-11.7,11.6-20.1,14.2c-2.8,0.8-5.7,1.3-8.5,2c-2.5,0-4.9,0-7.4,0c-0.4-0.1-0.7-0.3-1.1-0.3c-16.6-2.1-29.7-14-33.5-30.3
		c-0.3-1.5-0.6-3-1-4.5C-7.6-158-7.6-160.8-7.6-163.5z"/>
	<path class="st0" d="M90.4-197.4c-7.1-7.1-14-14-21.1-21.1c2.1-2.9,4.3-5.9,6.5-9c12.3-16.9,24.6-33.7,36.9-50.6
		c0.7-1,1.4-1.7,2.8-1.5c10,1.4,20.1,2.8,30.1,4.2c1.2,0.2,1.7,0.5,1.9,1.8c1.3,10,2.7,20,4.1,30c0.1,0.7-0.3,1.7-0.8,2.1
		c-19.9,14.6-39.9,29.2-59.9,43.8C90.7-197.6,90.5-197.4,90.4-197.4z"/>
	<path class="st0" d="M58.2-159.2c10.4-7.6,20.6-15,30.6-22.3c7.6,7.6,15.1,15.1,22.7,22.7c-0.4,0.2-0.9,0.5-1.5,0.7
		c-11.4,4.7-22.8,9.5-34.2,14.2c-0.8,0.3-1.5,0.8-2.4-0.1C68.4-149.1,63.4-154,58.2-159.2z"/>
	<path class="st0" d="M53.3-216.6c-7.2,9.8-14.6,19.9-22.1,30.3c-0.6-0.6-1.2-1.1-1.7-1.7c-4.3-4.3-8.5-8.6-12.8-12.8
		c-0.7-0.7-1.1-1.2-0.6-2.3c5-11.9,9.9-23.7,14.8-35.6c0.1-0.2,0.2-0.3,0.1-0.2C38.3-231.6,45.7-224.2,53.3-216.6z"/>
	<path class="st0" d="M49.9-167.7c-3.5-3.5-6.8-6.8-10.2-10.3c7.4-10.1,14.9-20.3,22.2-30.4c6.1,6.2,12.2,12.2,18.4,18.5
		C70.3-182.6,60.1-175.2,49.9-167.7z"/>
</g>
<path class="st0" d="M1153.2,166.7c0,3.9,0,7.8,0,11.7c-0.1,0.6-0.3,1.2-0.3,1.9c-0.5,3.7-0.8,7.4-1.4,11
	c-3.8,19.9-12.8,37.1-27.1,51.5c-14.9,15.1-32.9,24.6-53.9,28.2c-3.8,0.6-7.6,1-11.4,1.5c-3.9,0-7.8,0-11.7,0
	c-2.6-0.3-5.3-0.6-7.9-1c-19.7-2.8-37.1-10.7-52.1-23.8c-17.6-15.5-28.6-34.8-32.6-58c-0.7-3.8-1-7.6-1.5-11.4c0-3.9,0-7.8,0-11.7
	c0.1-0.6,0.3-1.2,0.3-1.9c0.5-3.7,0.8-7.4,1.4-11c3.8-19.9,12.9-37.1,27.1-51.5c14.9-15.1,32.9-24.6,53.9-28.2
	c3.8-0.6,7.6-1,11.4-1.5c3.9,0,7.8,0,11.7,0c2.6,0.3,5.3,0.6,7.9,1c19.7,2.8,37.1,10.7,52.1,23.8c17.6,15.5,28.6,34.8,32.6,58
	C1152.3,159.1,1152.7,162.9,1153.2,166.7z M1047.4,122.3c0-4.8,0-9.5,0-14.3c0-0.8-0.4-1.8-1-2.3c-7.2-5.3-14.4-10.5-21.6-15.7
	c-0.5-0.4-1.5-0.5-2.1-0.3c-17,6.4-30.8,17-41.3,31.7c-0.4,0.6-0.6,1.6-0.3,2.2c2.5,7.9,5.1,15.8,7.7,23.7c0.2,0.7,1,1.5,1.7,1.7
	c9.1,3,18.3,6,27.4,8.9c0.7,0.2,1.8,0.1,2.4-0.4c8.7-6.2,17.3-12.5,25.9-18.8c0.6-0.4,1.1-1.5,1.1-2.2
	C1047.4,132,1047.4,127.2,1047.4,122.3z M1059.1,122.2c0,4.8,0,9.6,0,14.5c0,1.2,0.4,1.9,1.3,2.6c8.6,6.2,17.1,12.4,25.6,18.5
	c0.7,0.5,1.8,0.7,2.6,0.4c9.1-2.9,18.2-5.8,27.3-8.8c0.7-0.2,1.6-1,1.8-1.7c2.7-8,5.3-16,7.8-24.1c0.2-0.6,0-1.4-0.3-1.9
	c-10.6-14.8-24.4-25.4-41.4-31.9c-0.6-0.2-1.5-0.1-2.1,0.3c-7.2,5.2-14.4,10.3-21.5,15.6c-0.6,0.4-1.1,1.4-1.1,2.2
	C1059,112.7,1059.1,117.4,1059.1,122.2z M1110.1,228.5c3.3,0,6.6,0.1,10,0c0.8,0,1.7-0.5,2.2-1.1c1.5-1.7,2.8-3.6,4.1-5.5
	c9.3-13.8,14.2-28.9,15.1-45.5c0.1-1.1-0.2-1.8-1.1-2.4c-6.1-4.4-12.1-8.8-18.2-13.1c-0.6-0.4-1.7-0.6-2.4-0.4
	c-9.2,2.9-18.3,5.9-27.4,8.9c-0.7,0.2-1.5,1-1.8,1.7c-3.4,10.2-6.7,20.4-9.9,30.6c-0.2,0.7,0,1.7,0.4,2.2c5.6,7.8,11.3,15.6,17,23.4
	c0.4,0.6,1.4,1.1,2.2,1.1C1103.4,228.6,1106.7,228.5,1110.1,228.5z M996.3,228.5c3.3,0,6.5-0.1,9.8,0c1.2,0,2-0.4,2.7-1.4
	c5.5-7.7,11-15.3,16.6-22.9c0.8-1,0.8-1.9,0.4-3c-3.3-9.9-6.5-19.9-9.7-29.8c-0.4-1.2-1-1.8-2.2-2.2c-9-2.9-17.9-5.8-26.9-8.8
	c-1.3-0.4-2.1-0.2-3.2,0.6c-5.3,3.9-10.5,7.9-16,11.5c-2.3,1.6-3,3.2-2.8,6c1.4,18.3,7.8,34.5,19.1,48.8c0.4,0.6,1.4,1,2.1,1
	C989.6,228.6,992.9,228.5,996.3,228.5z M1053.3,209.8c-5.3,0-10.5,0-15.8,0c-1.2,0-1.9,0.4-2.6,1.3c-5.6,7.8-11.2,15.5-16.8,23.2
	c-0.5,0.6-0.6,1.8-0.4,2.6c1.8,5.8,3.7,11.5,5.5,17.3c0.4,1.1,0.9,1.8,2.2,2.2c18.5,6,37,6,55.6,0c1.2-0.4,1.8-0.9,2.2-2.1
	c1.8-5.8,3.8-11.6,5.6-17.4c0.2-0.7,0.1-1.8-0.3-2.4c-5.6-7.8-11.2-15.6-17-23.4c-0.5-0.6-1.6-1.2-2.4-1.2
	C1063.8,209.7,1058.5,209.8,1053.3,209.8z"/>
<g>
	<path class="st0" d="M497,141.3c0.5-4.3,0.9-8.6,1.6-12.9c0.5-3.1,1.2-6.2,2-9.3c0.2-0.7,1-1.5,1.7-1.9c8.4-4.5,17.4-7.1,26.7-9
		c9.4-2,18.9-3.6,28.3-5.7c12.9-2.8,24.4-8.7,35.2-16.2c1-0.7,1.9-1.4,3-2.2c4.1,3.3,8.1,6.7,12.4,10.1c-2,1.4-3.8,2.7-5.6,4
		c-21,15.2-40.4,32.1-57.3,51.9c-10.4,12.2-19.7,25.2-25.9,40.2c-1.5,3.8-2.8,7.7-4.3,11.8c-1.4-2.2-2.8-4.2-4-6.3
		c-6.3-10.8-10.5-22.5-12.5-34.8c-0.5-3.1-0.7-6.3-1-9.5c-0.1-0.8-0.2-1.5-0.3-2.3C497,146.5,497,143.9,497,141.3z"/>
	<path class="st0" d="M593.9,245.2c10.8-25.8,16-53.1,22.7-80c2.2-8.7,4.7-17.3,7.6-25.8c1.8-5.5,5-10.3,10-14
		c1.2,2.2,2.4,4.4,3.5,6.5c7.9,15.9,13,32.7,16.4,50c2.5,12.7,4,25.6,4.7,38.5c0.1,2.4-0.5,3.8-2.5,5.3c-12.9,9.4-27.1,15.3-42.7,18
		c-3.9,0.7-7.9,0.9-11.8,1.4C599.1,245.2,596.5,245.2,593.9,245.2z"/>
	<path class="st0" d="M697,151.4c-0.5,3.8-0.9,7.6-1.6,11.4c-3.6,19.8-12.4,37-26.2,51.5c-0.2,0.2-0.4,0.3-0.8,0.6
		c-2.6-32.9-9.1-64.6-25.3-94.2c3.8-0.7,7.4-1.4,11-2.1c7.1-1.3,13,1.6,18.5,5.5c7.7,5.5,13.9,12.7,20.1,19.9c1.4,1.7,2.9,3.4,4.3,5
		C697,149.9,697,150.7,697,151.4z"/>
	<path class="st0" d="M602.9,45.2c1.2,0.2,2.4,0.4,3.8,0.6c0.2,4.4,1,9-0.6,13.2c-0.9,2.4-2.9,4.5-4.7,6.5c-1.8,2.1-4,3.9-5.8,5.6
		c-11.2-6.7-22.2-13.2-33.6-20c5.9-1.5,11.7-3.1,17.7-4.4c3.8-0.8,7.7-1.1,11.5-1.6C595,45.2,598.9,45.2,602.9,45.2z"/>
	<path class="st0" d="M615.6,101.1c4.5,5.2,8.9,10.3,12.7,14.7c-2.3,2.7-4.3,5-6.2,7.4c-6.2,7.6-9.4,16.6-11.8,25.9
		c-5.1,19.9-9.8,39.9-14.9,59.8c-2.9,11.5-6.5,22.7-11.4,33.6c-0.6,1.4-1.4,1.7-2.8,1.5c-22.4-3.9-41.5-14-57.1-30.5
		c-0.5-0.5-0.7-1.5-0.6-2.2c1.4-11,6-21,11.5-30.4c8.3-14.1,18.8-26.5,30.3-38.1C580.6,127.4,597.3,113.7,615.6,101.1z"/>
	<path class="st0" d="M587.2,78.2c-5.6,3.2-10.8,6.3-16.2,9c-8.2,4.2-17.2,5.9-26.1,7.5c-12.9,2.4-25.8,4.7-38.2,9.4
		c-0.2,0.1-0.4,0-1.1,0c3-5.1,5.5-10,8.6-14.6c8.8-13.2,20.1-23.6,33.9-31.4c1.1-0.7,2-0.7,3.2-0.2
		C563.6,63.4,575.3,70.1,587.2,78.2z"/>
	<path class="st0" d="M696.2,132.6c-1.4-1.5-2.5-2.8-3.7-3.9c-5.1-4.6-10-9.5-15.5-13.6c-8.5-6.4-18.3-8.2-28.7-5.6
		c-3.1,0.7-6.1,1.6-9.2,2.3c-0.6,0.1-1.6,0-1.9-0.5c-4.3-5.2-8.5-10.5-12.9-15.9c4.4-2.5,9.1-5.2,13.8-7.8
		c10.2-5.4,21.3-7.4,32.5-8.9c0.6-0.1,1.4,0.3,1.8,0.8c12.7,14.6,20.6,31.5,23.5,50.6C695.9,130.8,696,131.5,696.2,132.6z"/>
	<path class="st0" d="M603.2,77.3c10.1-7.5,15.8-17,13.2-30.2c17.6,3.6,32.6,11,46.1,22.5c-8.4,1.8-16.7,3.1-24.2,6.8
		c-7.4,3.7-14.7,7.8-22.2,11.8C612.1,84.9,607.9,81.3,603.2,77.3z"/>
</g>
<g>
	<path class="st0" d="M754.9-90.5c1.1-6.7,2.3-13.1,3.4-19.9c1,0,2.2,0,3.4,0c3.8-0.1,6.6-3,6.6-6.7c0-3.7-2.8-6.5-6.6-6.7
		c-1.2,0-2.4,0-3.4,0c-1.2-6.7-2.3-13.2-3.4-19.9c0.4-0.1,1.1-0.2,1.7-0.4c3.3-0.9,5.3-3.8,4.9-7.2c-0.3-3.1-3.1-6.1-6.3-5.7
		c-4.5,0.6-6.2-1.6-8-5.3c-5.5-11.3-13.3-20.8-22.7-29c-1.2-1-2.4-2.1-3.9-3.4c15.4-12.8,32.9-20.3,52.7-22.1c27-2.5,51,5,72.2,22.3
		c-1.8,1.6-3.4,3-4.9,4.5c-9.9,8.8-17.7,19.2-23.2,31.2c-0.6,1.2-1.2,1.9-2.6,1.7c-1-0.1-1.9,0-2.9,0c-3.9,0.1-6.7,2.5-7,6
		c-0.3,3.8,2.1,6.7,6.1,7.3c0.2,0,0.4,0.1,0.6,0.1c-1.1,6.6-2.3,13.2-3.4,19.9c-2.8,0.1-6.2-0.5-8.3,2.3c-0.9,1.2-1.5,2.8-1.6,4.3
		c-0.3,2.6,1,4.8,3.4,5.7c2,0.8,4.4,0.9,6.6,1.3c1.1,6.3,2.2,12.9,3.4,19.5c-0.5,0.1-1.2,0.2-2,0.4c-3.2,1-5,3.8-4.7,7.2
		c0.3,3.1,2.9,5.6,6.1,5.8c0.1,0,0.3,0,0.4,0c4.1-0.9,5.9,1.3,7.6,4.8c6.1,12.6,14.9,23.2,25.7,32.1c0.3,0.3,0.6,0.5,0.9,0.8
		C811.6-10,756.4-9.2,721-39.3c1.6-1.4,3.2-2.8,4.8-4.2c9.8-9,17.5-19.5,23.1-31.6c0.7-1.6,1.6-2.2,3.3-2c0.8,0.1,1.7,0,2.5,0
		c3.8-0.1,6.7-2.6,6.9-6.1c0.3-3.7-2.1-6.6-6-7.2C755.3-90.4,755.1-90.5,754.9-90.5z"/>
	<path class="st0" d="M855.5-48.5c-9.9-7.8-17.8-17.2-23.8-28.4c2.9-0.5,5.2-1.8,6.2-4.7c1.4-4.1-1.5-8.5-6-8.8
		c-1.9-0.1-3.9,0-6.4,0c-1.3-6.5-2.6-13-4-20c1.5,0,2.5,0,3.5,0c3.8-0.1,6.6-3,6.6-6.7c0-3.7-2.9-6.5-6.6-6.6c-0.9,0-1.8,0-3,0
		c0.4-6.9,1.8-13.5,3.9-20c1.8,0,3.4,0,5.1,0c4,0,6.9-2.3,7.3-5.7c0.4-3.7-1.6-6.5-5.6-7.6c-0.2-0.1-0.4-0.1-0.8-0.2
		c5.8-11.2,14-20.2,23.7-28.1C892.6-147.8,892.3-86.5,855.5-48.5z"/>
	<path class="st0" d="M711.2-185.3c9.7,7.9,17.7,16.9,23.4,28.1c-3,0.5-5.2,1.8-6.2,4.7c-1.4,4.2,1.6,8.5,6.1,8.7
		c1.9,0.1,3.9,0,6.4,0c1.3,6.6,2.6,13.1,4,20c-1.6,0-2.6,0-3.6,0c-3.6,0.2-6.4,3-6.4,6.6c0,3.5,2.8,6.5,6.4,6.7c1,0.1,2,0,3.7,0
		c-1.4,6.9-2.7,13.4-4,20c-2.2,0-3.8,0-5.5,0c-3.9,0-6.8,2.3-7.2,5.8c-0.4,3.7,1.7,6.5,5.7,7.5c0.2,0.1,0.4,0.1,0.8,0.2
		c-5.8,11.3-13.9,20.6-23.7,28.4C674.9-85.1,673-147,711.2-185.3z"/>
</g>
<g>
	<path class="st0" d="M363.5-295.8c4,0.8,8.1,1.3,12,2.4c24.3,6.8,42.6,28.4,44.2,53.6c1.4,22.1,1.2,44.2-5.4,65.8
		c-3.1,10.2-7.1,19.9-12.2,29.3c-0.7,1.3-1.4,1.7-2.9,1.7c-30.9,0-61.7,0-92.6,0c-3.6,0-7.2,0-10.7,0c-0.7,0-1.7-0.4-2.2-0.9
		c-6.4-6.4-12.9-12.7-19.2-19.2c-11.8-12.2-7.5-31.8,8.4-37.2c2.4-0.8,5.1-1.2,7.7-1.2c11.8-0.1,23.6-0.1,35.4,0
		c7,0,12.2,5.1,12.2,11.8c0,6.6-5.3,11.6-12.1,11.6c-6.9,0-13.8,0-20.7,0c-0.7,0-1.4,0-2.2,0c0,3.9,0,7.7,0,11.7c0.7,0,1.4,0,2,0
		c6.8,0,13.7,0,20.5,0c13.4,0,23.3-9.2,24.2-22.5c0-0.2,0.1-0.5,0.1-1c15,1,27.8-3.3,37.5-15.1c7.5-9.1,10-19.8,9.1-31.6
		c-3.7,0-7.5,0-11.6,0c0,1.6,0,3.3,0,5c0,17.2-12.8,30-30,30c-2.3,0-4.7,0.1-7-0.1c-0.7,0-1.7-0.6-2.1-1.2
		c-4.9-6.9-11.5-10.5-20.1-10.5c-12.2,0-24.5,0-36.7,0c-1.4,0-2.2-0.4-3.1-1.5c-5-6.8-7.1-14.4-6.4-22.8
		c1.7-20.8,11.2-37.1,28.6-48.6c8-5.3,16.9-8.3,26.4-9.2c0.5-0.1,1-0.2,1.5-0.3C345.3-295.8,354.4-295.8,363.5-295.8z"/>
	<path class="st0" d="M365.1-95.8c-2.7-1.1-5.6-1.9-7.9-3.5c-6.3-4.3-8.8-12.2-6.5-19.5c2.3-7.3,9-12.5,16.6-12.5
		c9.4-0.1,18.9,0,28.3,0c0.3,0,0.6,0,1.2,0.1c0,11.9,0,23.7,0,35.5C386.2-95.8,375.7-95.8,365.1-95.8z"/>
	<path class="st0" d="M303-95.8c0-11.8,0-23.5,0-35.4c13.7,0,27.2,0,40.4,0c-1.5,3.6-3.4,7.2-4.3,11c-2.2,8.4-0.5,16.2,4.4,23.4
		c0.2,0.3,0.4,0.7,0.6,1C330.3-95.8,316.7-95.8,303-95.8z"/>
</g>
<g>
	<path class="st0" d="M412.8,385.9c0.8-1,1.5-2.1,2.5-2.9c28.9-24.1,57.9-48.2,86.8-72.4c7-5.8,14.5-5.8,21.4,0
		c9.1,7.6,18.2,15.2,27.3,22.8c0.5,0.4,1,0.7,1.8,1.4c0-1,0-1.7,0-2.3c0-6.9,0-13.8,0-20.7c0-3.7,1.3-5.1,5-5.1c7.2,0,14.4,0,21.7,0
		c3.7,0,5.1,1.4,5.1,5.1c0,15.9,0,31.8,0,47.6c0,1.4,0.4,2.3,1.5,3.1c8.1,6.7,16.2,13.4,24.3,20.2c1.1,0.9,1.9,2.1,2.8,3.2
		c0,0.8,0,1.6,0,2.3c-2.6,3.1-5.1,6.2-7.7,9.3c-2.5,3.1-4.5,3.2-7.6,0.7c-27.6-23-55.2-46-82.8-69c-0.6-0.5-1.2-1-2-1.6
		c-3.1,2.6-6.2,5.1-9.3,7.7c-25.2,21-50.4,42-75.6,63c-2.9,2.4-5,2.2-7.3-0.6c-2.6-3.1-5.2-6.3-7.8-9.4
		C412.8,387.4,412.8,386.7,412.8,385.9z"/>
	<path class="st0" d="M528.7,465.3c0-15.7,0-31.5,0-47.3c-10.7,0-21.1,0-31.8,0c0,15.8,0,31.5,0,47.5c-0.9,0-1.6,0-2.3,0
		c-14.7,0-29.4,0-44.1,0c-6.1,0-9.2-3.2-9.2-9.3c0-18.9,0-37.8,0-56.6c0-1.6,0.5-2.6,1.7-3.6c22.6-18.6,45.2-37.2,67.8-55.9
		c0.6-0.5,1.2-1,2-1.6c2,1.6,4,3.3,6,4.9c21.4,17.6,42.8,35.3,64.1,53c0.7,0.6,1.3,1.8,1.3,2.8c0.1,19.3,0.1,38.5,0,57.8
		c0,5-3.2,8.6-8.2,8.6c-15.6,0.1-31.1,0-46.7,0C529.3,465.5,529.2,465.4,528.7,465.3z"/>
</g>
<g>
</g>
<g>
</g>
<g>
</g>
<g>
</g>
<g>
</g>
<g>
</g>
</svg>
