<?xml version="1.0" encoding="utf-8"?>
<!-- Generator: Adobe Illustrator 27.3.1, SVG Export Plug-In . SVG Version: 6.00 Build 0)  -->
<svg version="1.1" id="Layer_1" xmlns="http://www.w3.org/2000/svg" xmlns:xlink="http://www.w3.org/1999/xlink" x="0px" y="0px"
	 width="188.9px" height="45px" viewBox="0 0 188.9 45" style="enable-background:new 0 0 188.9 45;" xml:space="preserve">
<style type="text/css">
	.st0{fill:#02A7F0;}
	.st1{fill:url(#SVGID_1_);}
	.st2{fill:#33CCCC;}
	.st3{fill:url(#SVGID_00000143592522940934082280000011962485480892624266_);}
	.st4{fill:url(#SVGID_00000018926907836022118820000012267110876334971016_);}
	.st5{fill:url(#SVGID_00000017505571834022851360000010967932290617165718_);}
	.st6{fill:url(#SVGID_00000016783156266142211910000005615266147418956423_);}
	.st7{fill:url(#SVGID_00000179644809347578478550000007606688899627372956_);}
	.st8{fill:url(#SVGID_00000018955697425401151730000000469604530725245857_);}
	.st9{fill:url(#SVGID_00000040542289321383267860000000535536640328403645_);}
</style>
<g>
	<polygon class="st0" points="10.1,5.2 10.1,2.4 6.5,2.4 6.5,0 2.9,0 2.9,13.7 6.5,13.7 6.5,11.3 10.1,11.3 10.1,8.5 13.9,8.5 
		13.9,5.2 	"/>
</g>
<path class="st0" d="M27.4,19.4c0,0.1,0.1,0.3,0.1,0.6c0.3,0.8,0.4,1.8,0.4,2.8c0,4.9-3.5,9.2-7.8,9.5c-0.3,0-0.4-0.1-0.4-0.4v-1
	c0-0.1-0.1-0.3-0.3-0.3c-4.6-0.1-8.4-4.3-7.8-9.1c0.4-3.6,3.2-6.5,6.7-7.1c0.7-0.1,1.5-0.1,2.2-0.1c0,0,0,0,0.1,0
	c0.3,0,0.4,0,0.7,0.1h0.1c0.3,0,0.4,0.1,0.7,0.1l0,0C24.6,15.2,26.6,17,27.4,19.4C27.4,19.2,27.4,19.4,27.4,19.4z"/>
<linearGradient id="SVGID_1_" gradientUnits="userSpaceOnUse" x1="19.8883" y1="172.0693" x2="19.8883" y2="185.8373" gradientTransform="matrix(1 0 0 1 0 -162)">
	<stop  offset="0" style="stop-color:#FFFFFF"/>
	<stop  offset="0.9888" style="stop-color:#FFFFFF;stop-opacity:0"/>
</linearGradient>
<ellipse class="st1" cx="19.9" cy="19.4" rx="6.4" ry="4.5"/>
<path class="st2" d="M38.8,15.5c-0.1-0.4-0.3-0.8-0.4-1.3l-0.1-0.3C36,8.4,31.5,4,25.9,2.4h-0.1c-0.6-0.1-1.1-0.3-1.7-0.4h-0.3
	c-0.6-0.1-1.1-0.1-1.7-0.3h-0.3c-1.3-0.1-2.4-0.1-3.6,0v3.5c0.6,0,1.1-0.1,1.7-0.1c0.6,0,1.1,0,1.7,0.1h0.3c0.4,0,1,0.1,1.4,0.3h0.3
	c0.4,0.1,1,0.3,1.4,0.4c4.7,1.5,8.5,5,10.3,9.6v0.1l0,0c0.1,0.3,0.3,0.7,0.4,1.1c0.6,1.8,0.8,3.8,0.8,5.7c0,9.5-6.7,18-14.8,19.1
	v-1.3c0-1.4-1.1-2.4-2.4-2.5c-4.5-0.1-8.8-2.2-11.7-5.7s-4.3-7.9-3.9-12.5c0-0.6,0.1-1.1,0.3-1.5H2.9H0.2c-0.1,0.3-0.1,0.7-0.1,1.1
	C-0.5,24.7,1.2,30,4.8,34.3c3.3,3.9,8.2,6.3,13.2,6.8v1.3c0,0.7,0.3,1.4,0.8,2c0.4,0.4,1.1,0.7,1.8,0.7h0.1
	c10.4-0.7,18.9-10.7,18.9-22.6C39.8,19.9,39.5,17.7,38.8,15.5z"/>
<g>
	
		<linearGradient id="SVGID_00000016755406542627708940000005739656124965823644_" gradientUnits="userSpaceOnUse" x1="55.7629" y1="32.545" x2="55.7629" y2="16.0587" gradientTransform="matrix(1 0 0 -1 0 44.5)">
		<stop  offset="0" style="stop-color:#33CCCC"/>
		<stop  offset="0.9944" style="stop-color:#02A7F0"/>
	</linearGradient>
	<path style="fill:url(#SVGID_00000016755406542627708940000005739656124965823644_);" d="M62.5,13.8c1.1,1.3,1.7,2.9,1.7,5v9.5
		h-5.7v-8.8c0-1-0.3-1.7-0.7-2.2c-0.4-0.6-1.1-0.8-2-0.8c-0.8,0-1.5,0.3-2,0.8C53.3,18,53,18.8,53,19.6v8.8h-5.7V12.1H53v2.4
		c0.6-0.7,1.3-1.4,2.1-1.8c0.8-0.4,1.8-0.7,2.9-0.7C60,12,61.4,12.5,62.5,13.8z"/>
	
		<linearGradient id="SVGID_00000010992650764394131330000017300510578643982266_" gradientUnits="userSpaceOnUse" x1="75.1979" y1="32.6036" x2="75.1979" y2="15.8546" gradientTransform="matrix(1 0 0 -1 0 44.5)">
		<stop  offset="0" style="stop-color:#33CCCC"/>
		<stop  offset="0.9944" style="stop-color:#02A7F0"/>
	</linearGradient>
	<path style="fill:url(#SVGID_00000010992650764394131330000017300510578643982266_);" d="M67.4,15.9c0.6-1.3,1.4-2.2,2.5-2.9
		c1.1-0.7,2.2-1,3.5-1c1.1,0,2.1,0.3,2.9,0.7c0.8,0.4,1.4,1.1,2,1.8v-2.2H84v16.3h-5.7v-2.2c-0.4,0.7-1.1,1.4-2,1.8
		s-1.8,0.7-2.9,0.7c-1.3,0-2.5-0.3-3.5-1c-1.1-0.7-2-1.7-2.5-2.9c-0.6-1.3-1-2.8-1-4.5C66.4,18.8,66.7,17.1,67.4,15.9z M77.4,17.8
		c-0.6-0.6-1.3-0.8-2.1-0.8s-1.5,0.3-2.1,0.8c-0.6,0.6-0.8,1.4-0.8,2.5s0.3,1.8,0.8,2.5s1.3,1,2.1,1s1.5-0.3,2.1-0.8
		c0.6-0.6,0.8-1.4,0.8-2.5C78.3,19.2,78,18.4,77.4,17.8z"/>
	
		<linearGradient id="SVGID_00000121277172527655216950000013513912877732874624_" gradientUnits="userSpaceOnUse" x1="94.4239" y1="32.6036" x2="94.4239" y2="15.8546" gradientTransform="matrix(1 0 0 -1 0 44.5)">
		<stop  offset="0" style="stop-color:#33CCCC"/>
		<stop  offset="0.9944" style="stop-color:#02A7F0"/>
	</linearGradient>
	<path style="fill:url(#SVGID_00000121277172527655216950000013513912877732874624_);" d="M87.3,15.9c0.7-1.3,1.7-2.2,2.9-2.9
		c1.3-0.7,2.6-1,4.3-1c2.1,0,3.8,0.6,5.3,1.7c1.4,1.1,2.4,2.8,2.8,4.7h-6c-0.3-1.1-1-1.5-2.1-1.5c-0.7,0-1.3,0.3-1.7,0.8
		c-0.4,0.6-0.6,1.4-0.6,2.6c0,1.1,0.1,2,0.6,2.6c0.4,0.6,1,0.8,1.7,0.8c1,0,1.7-0.6,2.1-1.5h6c-0.4,2-1.3,3.6-2.8,4.7
		c-1.4,1.1-3.2,1.7-5.3,1.7c-1.7,0-3.1-0.3-4.3-1C89,27,88,26.1,87.3,24.8s-1.1-2.8-1.1-4.5C86.2,18.5,86.6,17.1,87.3,15.9z"/>
	
		<linearGradient id="SVGID_00000008132295781909227690000000959994542361993650_" gradientUnits="userSpaceOnUse" x1="112.3961" y1="32.6036" x2="112.3961" y2="15.8546" gradientTransform="matrix(1 0 0 -1 0 44.5)">
		<stop  offset="0" style="stop-color:#33CCCC"/>
		<stop  offset="0.9944" style="stop-color:#02A7F0"/>
	</linearGradient>
	<path style="fill:url(#SVGID_00000008132295781909227690000000959994542361993650_);" d="M108.1,27.6c-1.3-0.7-2.4-1.7-3.1-2.9
		c-0.7-1.3-1.1-2.8-1.1-4.5s0.4-3.2,1.1-4.5s1.8-2.2,3.1-2.9s2.8-1,4.3-1c1.5,0,3.1,0.3,4.3,1c1.3,0.7,2.4,1.7,3.1,2.9
		s1.1,2.8,1.1,4.5s-0.4,3.2-1.1,4.5c-0.7,1.3-1.8,2.2-3.1,2.9c-1.3,0.7-2.8,1-4.5,1S109.3,28.3,108.1,27.6z M114.5,22.8
		c0.6-0.6,0.8-1.4,0.8-2.5s-0.3-2-0.8-2.5c-0.6-0.6-1.3-0.8-2-0.8s-1.4,0.3-2,0.8c-0.6,0.6-0.8,1.4-0.8,2.5s0.3,2,0.7,2.5
		c0.4,0.6,1.1,0.8,2,0.8C113.2,23.7,113.9,23.4,114.5,22.8z"/>
	
		<linearGradient id="SVGID_00000012473614634963550680000006760295958826315938_" gradientUnits="userSpaceOnUse" x1="137.5431" y1="32.545" x2="137.5431" y2="16.0587" gradientTransform="matrix(1 0 0 -1 0 44.5)">
		<stop  offset="0" style="stop-color:#33CCCC"/>
		<stop  offset="0.9944" style="stop-color:#02A7F0"/>
	</linearGradient>
	<path style="fill:url(#SVGID_00000012473614634963550680000006760295958826315938_);" d="M149.6,13.8c1.1,1.3,1.8,2.9,1.8,5.2v9.5
		h-5.7v-8.8c0-0.8-0.3-1.5-0.7-2.1c-0.4-0.4-1.1-0.7-2-0.7s-1.5,0.3-2,0.7c-0.4,0.4-0.7,1.1-0.7,2.1v8.8h-5.7v-8.8
		c0-0.8-0.3-1.5-0.7-2.1c-0.4-0.4-1.1-0.7-2-0.7s-1.5,0.3-2,0.7c-0.4,0.4-0.7,1.1-0.7,2.1v8.8h-5.7V12.1h5.7v2.1
		c0.6-0.7,1.1-1.3,2-1.7c0.8-0.4,1.7-0.6,2.8-0.6c1.3,0,2.2,0.3,3.2,0.8c1,0.6,1.7,1.3,2.2,2.2c0.6-0.8,1.4-1.7,2.4-2.2
		c1-0.6,2-0.8,3.2-0.8C146.8,12,148.5,12.5,149.6,13.8z"/>
	
		<linearGradient id="SVGID_00000035493169616016797060000001029926757413925294_" gradientUnits="userSpaceOnUse" x1="161.7149" y1="32.6036" x2="161.7149" y2="15.8546" gradientTransform="matrix(1 0 0 -1 0 44.5)">
		<stop  offset="0" style="stop-color:#33CCCC"/>
		<stop  offset="0.9944" style="stop-color:#02A7F0"/>
	</linearGradient>
	<path style="fill:url(#SVGID_00000035493169616016797060000001029926757413925294_);" d="M169.9,21.5h-10.9c0,0.8,0.3,1.5,0.7,2
		c0.4,0.4,1,0.7,1.7,0.7c1,0,1.7-0.4,2.1-1.3h6.1c-0.3,1.1-0.7,2.1-1.5,3.1c-0.8,1-1.7,1.5-2.8,2.1c-1.1,0.6-2.4,0.7-3.6,0.7
		c-1.7,0-3.1-0.3-4.3-1s-2.2-1.7-2.9-2.9c-0.7-1.3-1.1-2.8-1.1-4.5s0.4-3.2,1.1-4.5s1.7-2.2,2.9-2.9c1.3-0.7,2.6-1,4.3-1
		c1.7,0,3.1,0.3,4.3,1c1.3,0.7,2.2,1.7,2.9,2.8c0.7,1.3,1.1,2.6,1.1,4.3C170.1,20.5,170.1,21,169.9,21.5z M164.2,18.7
		c0-0.7-0.3-1.3-0.7-1.7c-0.4-0.4-1.1-0.6-1.8-0.6s-1.3,0.1-1.7,0.6c-0.4,0.4-0.7,1-0.8,1.7H164.2z"/>
	
		<linearGradient id="SVGID_00000096018202992422736830000003119865723001043358_" gradientUnits="userSpaceOnUse" x1="179.8264" y1="32.3995" x2="179.8264" y2="16.0587" gradientTransform="matrix(1 0 0 -1 0 44.5)">
		<stop  offset="0" style="stop-color:#33CCCC"/>
		<stop  offset="0.9944" style="stop-color:#02A7F0"/>
	</linearGradient>
	<path style="fill:url(#SVGID_00000096018202992422736830000003119865723001043358_);" d="M182.6,28.4l-2.9-4l-2.4,4H171l5.4-8.5
		l-5.7-7.8h6.4l2.9,4l2.4-4h6.3l-5.6,8.4l5.7,7.9H182.6z"/>
</g>
</svg>
