<?xml version="1.0" encoding="utf-8"?>
<!-- Generator: Adobe Illustrator 27.3.1, SVG Export Plug-In . SVG Version: 6.00 Build 0)  -->
<svg version="1.1" id="Layer_1" xmlns="http://www.w3.org/2000/svg" xmlns:xlink="http://www.w3.org/1999/xlink" x="0px" y="0px"
	 width="200px" height="200px" viewBox="0 0 200 200" style="enable-background:new 0 0 200 200;" xml:space="preserve">
<style type="text/css">
	.st0{fill:#169BD5;}
</style>
<g>
	<path class="st0" d="M0,96.1c0.5-4.3,0.9-8.6,1.6-12.9c0.5-3.1,1.2-6.2,2-9.3c0.2-0.7,1-1.5,1.7-1.9c8.4-4.5,17.4-7.1,26.7-9
		c9.4-2,18.9-3.6,28.3-5.7c12.9-2.8,24.4-8.7,35.2-16.2c1-0.7,1.9-1.4,3-2.2c4.1,3.3,8.1,6.7,12.4,10.1c-2,1.4-3.8,2.7-5.6,4
		c-21,15.2-40.4,32.1-57.3,51.9c-10.4,12.2-19.7,25.2-25.9,40.2c-1.5,3.8-2.8,7.7-4.3,11.8c-1.4-2.2-2.8-4.2-4-6.3
		c-6.3-10.8-10.5-22.5-12.5-34.8c-0.5-3.1-0.7-6.3-1-9.5c-0.1-0.8-0.2-1.5-0.3-2.3C0,101.3,0,98.7,0,96.1z"/>
	<path class="st0" d="M96.9,200c10.8-25.8,16-53.1,22.7-80c2.2-8.7,4.7-17.3,7.6-25.8c1.8-5.5,5-10.3,10-14c1.2,2.2,2.4,4.4,3.5,6.5
		c7.9,15.9,13,32.7,16.4,50c2.5,12.7,4,25.6,4.7,38.5c0.1,2.4-0.5,3.8-2.5,5.3c-12.9,9.4-27.1,15.3-42.7,18
		c-3.9,0.7-7.9,0.9-11.8,1.4C102.1,200,99.5,200,96.9,200z"/>
	<path class="st0" d="M200,106.2c-0.5,3.8-0.9,7.6-1.6,11.4c-3.6,19.8-12.4,37-26.2,51.5c-0.2,0.2-0.4,0.3-0.8,0.6
		c-2.6-32.9-9.1-64.6-25.3-94.2c3.8-0.7,7.4-1.4,11-2.1c7.1-1.3,13,1.6,18.5,5.5c7.7,5.5,13.9,12.7,20.1,19.9c1.4,1.7,2.9,3.4,4.3,5
		C200,104.7,200,105.5,200,106.2z"/>
	<path class="st0" d="M105.9,0c1.2,0.2,2.4,0.4,3.8,0.6c0.2,4.4,1,9-0.6,13.2c-0.9,2.4-2.9,4.5-4.7,6.5c-1.8,2.1-4,3.9-5.8,5.6
		C87.4,19.3,76.3,12.7,64.9,6c5.9-1.5,11.7-3.1,17.7-4.4c3.8-0.8,7.7-1.1,11.5-1.6C98,0,102,0,105.9,0z"/>
	<path class="st0" d="M118.6,55.9c4.5,5.2,8.9,10.3,12.7,14.7c-2.3,2.7-4.3,5-6.2,7.4c-6.2,7.6-9.4,16.6-11.8,25.9
		c-5.1,19.9-9.8,39.9-14.9,59.8c-2.9,11.5-6.5,22.7-11.4,33.6c-0.6,1.4-1.4,1.7-2.8,1.5c-22.4-3.9-41.5-14-57.1-30.5
		c-0.5-0.5-0.7-1.5-0.6-2.2c1.4-11,6-21,11.5-30.4c8.3-14.1,18.8-26.5,30.3-38.1C83.6,82.2,100.3,68.5,118.6,55.9z"/>
	<path class="st0" d="M90.2,33c-5.6,3.2-10.8,6.3-16.2,9c-8.2,4.2-17.2,5.9-26.1,7.5C35,51.9,22.1,54.3,9.7,58.9
		c-0.2,0.1-0.4,0-1.1,0c3-5.1,5.5-10,8.6-14.6C25.9,31.1,37.3,20.7,51,12.9c1.1-0.7,2-0.7,3.2-0.2C66.6,18.2,78.3,24.9,90.2,33z"/>
	<path class="st0" d="M199.2,87.5c-1.4-1.5-2.5-2.8-3.7-3.9c-5.1-4.6-10-9.5-15.5-13.6c-8.5-6.4-18.3-8.2-28.7-5.6
		c-3.1,0.7-6.1,1.6-9.2,2.3c-0.6,0.1-1.6,0-1.9-0.5c-4.3-5.2-8.5-10.5-12.9-15.9c4.4-2.5,9.1-5.2,13.8-7.8
		c10.2-5.4,21.3-7.4,32.5-8.9c0.6-0.1,1.4,0.3,1.8,0.8c12.7,14.6,20.6,31.5,23.5,50.6C198.9,85.6,199,86.3,199.2,87.5z"/>
	<path class="st0" d="M106.2,32.1c10.1-7.5,15.8-17,13.2-30.2C137,5.5,152,13,165.5,24.5c-8.4,1.8-16.7,3.1-24.2,6.8
		c-7.4,3.7-14.7,7.8-22.2,11.8C115.2,39.7,110.9,36.1,106.2,32.1z"/>
</g>
</svg>
