<?xml version="1.0" encoding="utf-8"?>
<!-- Generator: Adobe Illustrator 27.3.1, SVG Export Plug-In . SVG Version: 6.00 Build 0)  -->
<svg version="1.1" id="Layer_1" xmlns="http://www.w3.org/2000/svg" xmlns:xlink="http://www.w3.org/1999/xlink" x="0px" y="0px"
	 width="200px" height="200px" viewBox="0 0 200 200" style="enable-background:new 0 0 200 200;" xml:space="preserve">
<style type="text/css">
	.st0{fill:#169BD5;}
</style>
<g>
	<path class="st0" d="M119.4,0c4,0.8,8.1,1.3,12,2.4c24.3,6.8,42.6,28.4,44.2,53.6c1.4,22.1,1.2,44.2-5.4,65.8
		c-3.1,10.2-7.1,19.9-12.2,29.3c-0.7,1.3-1.4,1.7-2.9,1.7c-30.9,0-61.7,0-92.6,0c-3.6,0-7.2,0-10.7,0c-0.7,0-1.7-0.4-2.2-0.9
		c-6.4-6.4-12.9-12.7-19.2-19.2c-11.8-12.2-7.5-31.8,8.4-37.2c2.4-0.8,5.1-1.2,7.7-1.2c11.8-0.1,23.6-0.1,35.4,0
		c7,0,12.2,5.1,12.2,11.8c0,6.6-5.3,11.6-12.1,11.6c-6.9,0-13.8,0-20.7,0c-0.7,0-1.4,0-2.2,0c0,3.9,0,7.7,0,11.7c0.7,0,1.4,0,2,0
		c6.8,0,13.7,0,20.5,0c13.4,0,23.3-9.2,24.2-22.5c0-0.2,0.1-0.5,0.1-1c15,1,27.8-3.3,37.5-15.1c7.5-9.1,10-19.8,9.1-31.6
		c-3.7,0-7.5,0-11.6,0c0,1.6,0,3.3,0,5c0,17.2-12.8,30-30,30c-2.3,0-4.7,0.1-7-0.1c-0.7,0-1.7-0.6-2.1-1.2
		C96.8,86,90.2,82.4,81.7,82.4c-12.2,0-24.5,0-36.7,0c-1.4,0-2.2-0.4-3.1-1.5c-5-6.8-7.1-14.4-6.4-22.8
		c1.7-20.8,11.2-37.1,28.6-48.6c8-5.3,16.9-8.3,26.4-9.2C91,0.3,91.5,0.1,92,0C101.1,0,110.3,0,119.4,0z"/>
	<path class="st0" d="M120.9,200c-2.7-1.1-5.6-1.9-7.9-3.5c-6.3-4.3-8.8-12.2-6.5-19.5c2.3-7.3,9-12.5,16.6-12.5
		c9.4-0.1,18.9,0,28.3,0c0.3,0,0.6,0,1.2,0.1c0,11.9,0,23.7,0,35.5C142,200,131.5,200,120.9,200z"/>
	<path class="st0" d="M58.8,200c0-11.8,0-23.5,0-35.4c13.7,0,27.2,0,40.4,0c-1.5,3.6-3.4,7.2-4.3,11c-2.2,8.4-0.5,16.2,4.4,23.4
		c0.2,0.3,0.4,0.7,0.6,1C86.2,200,72.5,200,58.8,200z"/>
</g>
</svg>
