<?xml version="1.0" encoding="utf-8"?>
<!-- Generator: Adobe Illustrator 27.3.1, SVG Export Plug-In . SVG Version: 6.00 Build 0)  -->
<svg version="1.1" id="Layer_1" xmlns="http://www.w3.org/2000/svg" xmlns:xlink="http://www.w3.org/1999/xlink" x="0px" y="0px"
	 width="200px" height="200px" viewBox="0 0 200 200" style="enable-background:new 0 0 200 200;" xml:space="preserve">
<style type="text/css">
	.st0{fill:#169BD5;}
</style>
<g>
	<path class="st0" d="M0,157.9c4.7-16.8,9.4-33.5,14.1-50.3c1.7-6.1,3.2-12.2,6.5-17.7c9.2-15.5,22.9-23.7,40.8-24.9
		c1.3-0.1,2,0.3,2.5,1.5c1.9,4,3.9,7.9,5.9,11.9c0.3,0.6,1,1.3,1.6,1.3c5.5,0.1,11,0.1,16.9,0.1c0-2.4,0-4.6,0-6.9
		c0.1-5.8,4.5-10.6,10.4-11.3c5.4-0.7,11,2.8,12.5,8.2c0.5,2,0.4,4.1,0.6,6.2c0.1,1.2,0,2.4,0,3.9c4.5,0,8.8-0.3,13,0.1
		c3.6,0.3,5.7-0.8,7-4.3c1.1-3,2.9-5.8,4.3-8.8c0.6-1.4,1.4-1.9,2.9-1.8c21.2,1.1,38.8,14.7,44.8,35c5.2,17.7,10.4,35.4,15.2,53.2
		c5.5,20.3-9.9,40.6-30.9,40.8c-15.7,0.2-28.9-10.3-33-25.7c-0.4-1.4,0.5-1.5,1.3-1.9c10.6-6.1,13.1-20.1,5.1-29.2
		c-5.3-6.1-12.1-8.1-19.8-6c-7.8,2.2-12.4,7.7-13.8,15.8c-0.1,0.5-0.2,1-0.3,1.6c-5,0-9.9,0-15,0c-0.6-6-3.1-10.9-8-14.5
		c-3.4-2.5-7.3-3.7-11.5-3.7c-8.6,0.1-16.1,5.9-18.4,14c-2,7.2,0,17.2,10.5,22.8c-1,4.8-3,9.2-5.9,13.1c-8,10.7-21.8,15.9-34.2,12.8
		c-13.2-3.3-22.6-13.7-24.8-27.4c0-0.3-0.2-0.6-0.3-0.9C0,162.5,0,160.2,0,157.9z M54.8,90c-3.9,0-7.7,0-11.7,0c0,3.8,0,7.6,0,11.7
		c-4,0-7.8,0-11.7,0c0,4,0,7.7,0,11.7c3.3,0,6.5,0.1,9.6,0c1.6-0.1,2.1,0.5,2.1,2.1c-0.1,3.2,0,6.3,0,9.6c4,0,7.8,0,11.8,0
		c0-3.9,0-7.7,0-11.7c4,0,7.8,0,11.6,0c0-4,0-7.7,0-11.7c-3.9,0-7.7,0-11.7,0C54.8,97.6,54.8,93.9,54.8,90z M145.1,125.1
		c4.1,0,7.8,0,11.8,0c0-3.9,0-7.7,0-11.7c4,0,7.8,0,11.6,0c0-4,0-7.8,0-11.7c-3.9,0-7.7,0-11.7,0c0-4,0-7.8,0-11.6
		c-4,0-7.7,0-11.7,0c0,3.9,0,7.7,0,11.7c-4,0-7.8,0-11.6,0c0,4,0,7.7,0,11.7c3.9,0,7.6,0,11.6,0
		C145.1,117.4,145.1,121.1,145.1,125.1z M117.5,101.8c-11.8,0-23.4,0-35,0c0,3.9,0,7.6,0,11.5c11.7,0,23.3,0,35,0
		C117.5,109.5,117.5,105.7,117.5,101.8z"/>
	<path class="st0" d="M62.7,33c-2.8-2.8-5.5-5.5-8.1-8.1c21.6-23.3,64.1-27.1,90.8-0.2c-2.7,2.7-5.4,5.4-8.2,8.2
		C127,23,114.5,17.7,100,17.7C85.6,17.7,73.1,23,62.7,33z"/>
	<path class="st0" d="M79.3,49.7c-2.8-2.8-5.5-5.5-8.1-8.2c14.3-15.4,41.7-16.6,57.5-0.2c-2.7,2.7-5.4,5.4-8.2,8.2
		c-5.5-5.2-12.4-8.2-20.4-8.2C92,41.2,85.1,44.2,79.3,49.7z"/>
	<path class="st0" d="M126.8,157.1c-4.2,0-7.6-3.3-7.6-7.5c0-4.1,3.4-7.5,7.6-7.5c4.1,0,7.4,3.3,7.5,7.4
		C134.4,153.6,131,157.1,126.8,157.1z"/>
	<path class="st0" d="M73.3,157.1c-4.2,0-7.6-3.3-7.6-7.5c0-4.2,3.4-7.5,7.6-7.5c4.1,0,7.4,3.3,7.5,7.4
		C80.9,153.6,77.4,157.1,73.3,157.1z"/>
</g>
</svg>
