<?xml version="1.0" encoding="utf-8"?>
<!-- Generator: Adobe Illustrator 27.3.1, SVG Export Plug-In . SVG Version: 6.00 Build 0)  -->
<svg version="1.1" id="Layer_1" xmlns="http://www.w3.org/2000/svg" xmlns:xlink="http://www.w3.org/1999/xlink" x="0px" y="0px"
	 width="200px" height="200px" viewBox="0 0 200 200" style="enable-background:new 0 0 200 200;" xml:space="preserve">
<style type="text/css">
	.st0{fill:#169BD5;}
</style>
<path class="st0" d="M200,94.1c0,3.9,0,7.8,0,11.7c-0.1,0.6-0.3,1.2-0.3,1.9c-0.5,3.7-0.8,7.4-1.4,11c-3.8,19.9-12.8,37.1-27.1,51.5
	c-14.9,15.1-32.9,24.6-53.9,28.2c-3.8,0.6-7.6,1-11.4,1.5c-3.9,0-7.8,0-11.7,0c-2.6-0.3-5.3-0.6-7.9-1
	c-19.7-2.8-37.1-10.7-52.1-23.8c-17.6-15.5-28.6-34.8-32.6-58c-0.7-3.8-1-7.6-1.5-11.4C0,102,0,98,0,94.1c0.1-0.6,0.3-1.2,0.3-1.9
	c0.5-3.7,0.8-7.4,1.4-11c3.8-19.9,12.9-37.1,27.1-51.5C43.8,14.7,61.8,5.2,82.8,1.5c3.8-0.6,7.6-1,11.4-1.5c3.9,0,7.8,0,11.7,0
	c2.6,0.3,5.3,0.6,7.9,1c19.7,2.8,37.1,10.7,52.1,23.8c17.6,15.5,28.6,34.8,32.6,58C199.1,86.5,199.5,90.4,200,94.1z M94.1,49.8
	c0-4.8,0-9.5,0-14.3c0-0.8-0.4-1.8-1-2.3c-7.2-5.3-14.4-10.5-21.6-15.7C71,17.2,70,17,69.4,17.3c-17,6.4-30.8,17-41.3,31.7
	c-0.4,0.6-0.6,1.6-0.3,2.2c2.5,7.9,5.1,15.8,7.7,23.7c0.2,0.7,1,1.5,1.7,1.7c9.1,3,18.3,6,27.4,8.9c0.7,0.2,1.8,0.1,2.4-0.4
	C75.8,79,84.4,72.7,93,66.4c0.6-0.4,1.1-1.5,1.1-2.2C94.2,59.4,94.1,54.6,94.1,49.8z M105.9,49.6c0,4.8,0,9.6,0,14.5
	c0,1.2,0.4,1.9,1.3,2.6c8.6,6.2,17.1,12.4,25.6,18.5c0.7,0.5,1.8,0.7,2.6,0.4c9.1-2.9,18.2-5.8,27.3-8.8c0.7-0.2,1.6-1,1.8-1.7
	c2.7-8,5.3-16,7.8-24.1c0.2-0.6,0-1.4-0.3-1.9c-10.6-14.8-24.4-25.4-41.4-31.9c-0.6-0.2-1.5-0.1-2.1,0.3
	c-7.2,5.2-14.4,10.3-21.5,15.6c-0.6,0.4-1.1,1.4-1.1,2.2C105.8,40.1,105.9,44.9,105.9,49.6z M156.8,155.9c3.3,0,6.6,0.1,10,0
	c0.8,0,1.7-0.5,2.2-1.1c1.5-1.7,2.8-3.6,4.1-5.5c9.3-13.8,14.2-28.9,15.1-45.5c0.1-1.1-0.2-1.8-1.1-2.4c-6.1-4.4-12.1-8.8-18.2-13.1
	c-0.6-0.4-1.7-0.6-2.4-0.4c-9.2,2.9-18.3,5.9-27.4,8.9c-0.7,0.2-1.5,1-1.8,1.7c-3.4,10.2-6.7,20.4-9.9,30.6c-0.2,0.7,0,1.7,0.4,2.2
	c5.6,7.8,11.3,15.6,17,23.4c0.4,0.6,1.4,1.1,2.2,1.1C150.2,156,153.5,155.9,156.8,155.9z M43,155.9c3.3,0,6.5-0.1,9.8,0
	c1.2,0,2-0.4,2.7-1.4c5.5-7.7,11-15.3,16.6-22.9c0.8-1,0.8-1.9,0.4-3c-3.3-9.9-6.5-19.9-9.7-29.8c-0.4-1.2-1-1.8-2.2-2.2
	c-9-2.9-17.9-5.8-26.9-8.8c-1.3-0.4-2.1-0.2-3.2,0.6c-5.3,3.9-10.5,7.9-16,11.5c-2.3,1.6-3,3.2-2.8,6c1.4,18.3,7.8,34.5,19.1,48.8
	c0.4,0.6,1.4,1,2.1,1C36.4,156,39.7,155.9,43,155.9z M100,137.2c-5.3,0-10.5,0-15.8,0c-1.2,0-1.9,0.4-2.6,1.3
	c-5.6,7.8-11.2,15.5-16.8,23.2c-0.5,0.6-0.6,1.8-0.4,2.6c1.8,5.8,3.7,11.5,5.5,17.3c0.4,1.1,0.9,1.8,2.2,2.2c18.5,6,37,6,55.6,0
	c1.2-0.4,1.8-0.9,2.2-2.1c1.8-5.8,3.8-11.6,5.6-17.4c0.2-0.7,0.1-1.8-0.3-2.4c-5.6-7.8-11.2-15.6-17-23.4c-0.5-0.6-1.6-1.2-2.4-1.2
	C110.6,137.2,105.3,137.2,100,137.2z"/>
</svg>
