<?xml version="1.0" encoding="utf-8"?>
<!-- Generator: Adobe Illustrator 27.3.1, SVG Export Plug-In . SVG Version: 6.00 Build 0)  -->
<svg version="1.1" id="Layer_1" xmlns="http://www.w3.org/2000/svg" xmlns:xlink="http://www.w3.org/1999/xlink" x="0px" y="0px"
	 width="200px" height="200px" viewBox="0 0 200 200" style="enable-background:new 0 0 200 200;" xml:space="preserve">
<style type="text/css">
	.st0{fill:#169BD5;}
</style>
<g>
	<path class="st0" d="M0,100c0.8-1,1.5-2.1,2.5-2.9c28.9-24.1,57.9-48.2,86.8-72.4c7-5.8,14.5-5.8,21.4,0
		c9.1,7.6,18.2,15.2,27.3,22.8c0.5,0.4,1,0.7,1.8,1.4c0-1,0-1.7,0-2.3c0-6.9,0-13.8,0-20.7c0-3.7,1.3-5.1,5-5.1c7.2,0,14.4,0,21.7,0
		c3.7,0,5.1,1.4,5.1,5.1c0,15.9,0,31.8,0,47.6c0,1.4,0.4,2.3,1.5,3.1c8.1,6.7,16.2,13.4,24.3,20.2c1.1,0.9,1.9,2.1,2.8,3.2
		c0,0.8,0,1.6,0,2.3c-2.6,3.1-5.1,6.2-7.7,9.3c-2.5,3.1-4.5,3.2-7.6,0.7c-27.6-23-55.2-46-82.8-69c-0.6-0.5-1.2-1-2-1.6
		c-3.1,2.6-6.2,5.1-9.3,7.7c-25.2,21-50.4,42-75.6,63c-2.9,2.4-5,2.2-7.3-0.6c-2.6-3.1-5.2-6.3-7.8-9.4C0,101.6,0,100.8,0,100z"/>
	<path class="st0" d="M115.9,179.4c0-15.7,0-31.5,0-47.3c-10.7,0-21.1,0-31.8,0c0,15.8,0,31.5,0,47.5c-0.9,0-1.6,0-2.3,0
		c-14.7,0-29.4,0-44.1,0c-6.1,0-9.2-3.2-9.2-9.3c0-18.9,0-37.8,0-56.6c0-1.6,0.5-2.6,1.7-3.6C52.8,91.5,75.4,72.8,98,54.2
		c0.6-0.5,1.2-1,2-1.6c2,1.6,4,3.3,6,4.9c21.4,17.6,42.8,35.3,64.1,53c0.7,0.6,1.3,1.8,1.3,2.8c0.1,19.3,0.1,38.5,0,57.8
		c0,5-3.2,8.6-8.2,8.6c-15.6,0.1-31.1,0-46.7,0C116.5,179.6,116.4,179.5,115.9,179.4z"/>
</g>
</svg>
