<?xml version="1.0" encoding="utf-8"?>
<!-- Generator: Adobe Illustrator 27.3.1, SVG Export Plug-In . SVG Version: 6.00 Build 0)  -->
<svg version="1.1" id="Layer_1" xmlns="http://www.w3.org/2000/svg" xmlns:xlink="http://www.w3.org/1999/xlink" x="0px" y="0px"
	 width="200px" height="200px" viewBox="0 0 200 200" style="enable-background:new 0 0 200 200;" xml:space="preserve">
<style type="text/css">
	.st0{fill:#169BD5;}
</style>
<g>
	<path class="st0" d="M0,166.8c0-0.9,0-1.8,0-2.7c1-1.4,1.8-2.9,2.9-4c12.4-12.5,24.8-24.9,37.2-37.3c7.8-7.8,12.7-17.2,15.6-27.7
		c0.9-3.2,1.8-6.5,1.2-10c-1.1-6.9-0.9-13.9,0.7-20.8C65.2,32.5,84.8,12,115.9,2.4c4.1-1.2,8.4-1.6,12.6-2.4c3.1,0,6.2,0,9.4,0
		c0.6,0.1,1.3,0.3,1.9,0.4c14.1,1.6,26.1,7.3,35.2,18.4c12,14.6,14.6,31.5,10.7,49.5c-4.6,21-16.5,37.3-34,49.4
		c-14.7,10.1-30.9,14.8-48.9,12.9c-1.3-0.1-2.8-0.5-4.1-0.3c-12.9,2.3-24.2,7.7-33.5,17c-12.4,12.5-24.9,25-37.3,37.5
		c-4,4.1-6.8,4.1-10.9,0c-4.5-4.5-9.1-9-13.5-13.5C2.2,169.8,1.1,168.3,0,166.8z M74.2,99.9c3.1,5.1,7.2,9.3,12.2,12.6
		c1,0.6,1.5,0.3,2.1-0.4c3.1-3.1,6.1-6.2,9.2-9.3c2.4-2.4,4.8-4.8,7-7c-4.5-4.5-8.9-8.9-13.2-13.2C85.9,88.3,80.1,94.1,74.2,99.9z
		 M152,48.2c5.7-5.7,11.4-11.4,17.3-17.3c-3.2-5.3-7.6-9.7-12.8-12.9c-5.9,6-11.7,11.8-17.3,17.4C143.4,39.6,147.8,43.9,152,48.2z
		 M83.6,36c-2.7,4.1-5.4,8.3-8,12.5c-0.2,0.3,0.1,1.1,0.4,1.4c5.1,5.2,10.3,10.4,15.3,15.4c3.8-3.7,7.4-7.3,10.9-10.7
		C96.2,48.6,90.1,42.5,83.6,36z M152.2,65.6c-3.7,3.6-7.3,7.2-10.8,10.6c6.1,6.1,12.2,12.2,18.6,18.6c2.9-4.2,5.8-8.6,8.6-12.8
		C162.9,76.3,157.5,71,152.2,65.6z M138.6,112.1c4.1-2.8,8.4-5.7,12.6-8.6c-6.4-6.5-12.5-12.6-18.5-18.6c-3.5,3.6-7.1,7.2-10.6,10.7
		C127.4,100.9,132.8,106.3,138.6,112.1z M122,35.2c-5.3-5.2-10.5-10.5-15.9-15.8c-0.2-0.2-1-0.3-1.3-0.1c-4.1,2.6-8.3,5.3-12.2,7.9
		c6.5,6.5,12.6,12.6,18.7,18.6C114.6,42.4,118.2,38.9,122,35.2z M64.7,106.9c-3.6,6.3-7.2,12.5-10.7,18.8c2.6,2.6,5.4,5.4,8,7.9
		c6.2-3.6,12.4-7.2,18.6-10.9C74.2,118.7,68.8,113.3,64.7,106.9z M130.6,44.2c-3.6,3.6-7.2,7.2-10.7,10.7c4.2,4.2,8.6,8.5,12.8,12.8
		c3.5-3.6,7.1-7.2,10.7-10.8C139.1,52.6,134.7,48.3,130.6,44.2z M113.4,87c3.6-3.6,7.1-7.1,10.6-10.6c-4.3-4.3-8.7-8.7-13-12.9
		c-3.5,3.5-7.1,7.1-10.6,10.6C104.7,78.2,109,82.6,113.4,87z M82.7,73.9c-4-4-8.2-8.2-12.4-12.4c-2.4,8.5-3,17.2-1.1,25.9
		C73.8,82.8,78.4,78.3,82.7,73.9z M125.7,117c-4.3-4.3-8.4-8.5-12.4-12.4c-4.4,4.4-8.9,8.9-13.5,13.4
		C108.5,120,117.2,119.4,125.7,117z M117.8,14c4.3,4.3,8.5,8.5,12.4,12.4c4.4-4.5,9-9,13.5-13.5C135.1,10.9,126.5,11.5,117.8,14z
		 M173.4,69.5c2.4-8.6,3-17.3,1.1-25.8c-4.6,4.5-9.2,9-13.6,13.4C164.9,61.1,169.1,65.2,173.4,69.5z"/>
	<path class="st0" d="M200,167.6c-5.2-3-10.5-5.8-16.3-7.4c-17.3-4.7-33.6-2.3-48.8,7.1c-0.4,0.3-0.9,0.6-1.3,0.8c0,0-0.1,0-0.3-0.1
		c-0.4-3.8,0.1-7.6,1.2-11.2c4.5-15,18.7-24.7,34.8-23.7c14.8,0.9,28,13,30.4,28c0.1,0.4,0.2,0.9,0.4,1.3
		C200,164.2,200,165.9,200,167.6z"/>
	<path class="st0" d="M163.3,200c-4.1-1.3-8.4-2.2-12.3-4c-6.6-3.1-11.3-8.4-14.6-15.1c3.6-3.2,7.6-5.7,12-7.5
		c16.8-6.7,32.5-4.8,47.3,5.5c1.2,0.9,1.3,1.6,0.6,2.8c-5.5,10.1-13.9,16.1-25.3,17.9c-0.4,0.1-0.7,0.2-1.1,0.3
		C167.7,200,165.5,200,163.3,200z"/>
</g>
</svg>
