<?xml version="1.0" encoding="utf-8"?>
<!-- Generator: Adobe Illustrator 27.3.1, SVG Export Plug-In . SVG Version: 6.00 Build 0)  -->
<svg version="1.1" id="Layer_1" xmlns="http://www.w3.org/2000/svg" xmlns:xlink="http://www.w3.org/1999/xlink" x="0px" y="0px"
	 width="200px" height="200px" viewBox="0 0 200 200" style="enable-background:new 0 0 200 200;" xml:space="preserve">
<style type="text/css">
	.st0{fill:#169BD5;}
</style>
<g>
	<path class="st0" d="M97.3,199.9c-3.7-0.4-7.4-0.6-11-1.1c-22.4-3.1-41.6-12.8-57.5-28.9c-4-4-7.4-8.5-11-12.9
		c41.3,21.8,81.6,20.5,121.3-4.3c0.1,0.2,0.4,0.5,0.5,0.9c4.3,10.5,6.8,21.4,7.4,32.8c0.1,1.4-0.4,2-1.5,2.5
		c-12.7,6.4-26.2,10-40.4,10.7c-0.8,0-1.5,0.2-2.3,0.3C100.9,199.9,99.1,199.9,97.3,199.9z"/>
	<path class="st0" d="M0,92.8c0.6-4.4,1.1-8.8,2-13.1c5.5-26.4,19.5-47.2,41.5-62.6C56.8,7.8,71.6,2.4,87.7,0.4
		c0.9-0.1,1.7-0.1,2.8-0.2C51.4,25.2,32.8,60.7,34.6,107.3c-4.7-1-9.5-1.6-14.1-3.1C13.6,101.9,6.8,99,0,96.3C0,95.2,0,94,0,92.8z"
		/>
	<path class="st0" d="M200,105.7c-0.5,3.9-0.9,7.8-1.6,11.7c-1.4,8.2-3.9,16.2-7.5,24c-1.9-46.7-23.3-80.8-64.7-102.6
		c2.8-3.2,5.6-6.5,8.6-9.6c5-5.2,10.6-9.7,16.7-13.7c0.9-0.6,1.5-0.7,2.4-0.1c24.2,16.1,39.2,38.3,44.5,66.9c0.7,3.8,1,7.6,1.6,11.3
		C200,97.6,200,101.7,200,105.7z"/>
	<path class="st0" d="M119.6,49c10.9,4.9,20.7,11.5,29.1,19.9c20.3,20.3,30.4,44.9,30,73.6c-0.1,7.1-1.7,14.2-2.6,21.3
		c-0.1,0.5-0.3,1-0.6,1.4c-5,5.8-10.7,11-17.1,15.6c-0.6-3.7-1.1-7.2-1.8-10.7c-6.3-30.8-22.6-55-48.8-72.4c-1.5-1-2-1.9-1.9-3.7
		c0.9-14.8,4.8-28.8,11.8-41.9c0.4-0.8,0.9-1.6,1.3-2.4C119.3,49.5,119.4,49.4,119.6,49z"/>
	<path class="st0" d="M140.7,8.3c-4.2,3.7-8.5,7-12.3,10.8c-18.4,18-29.5,39.7-33.1,65.2c-0.5,3.4-0.6,6.9-1.1,10.3
		c-0.1,0.7-0.6,1.6-1.2,1.9c-14.2,7.4-29.3,11.2-45.3,11.3c-0.3,0-0.5-0.1-1.2-0.2c-0.1-4.2-0.4-8.5-0.3-12.8
		c0.5-17.4,5.1-33.6,14.1-48.5C73.5,24.5,92.2,9.7,116.5,1.9c1.2-0.4,2.7-0.4,4-0.1C127.4,3.1,134.1,5.3,140.7,8.3z"/>
	<path class="st0" d="M134,142c-5.5,3.1-10.7,6.3-16.1,8.9c-14.9,7.2-30.8,10.3-47.3,9.4c-24.8-1.3-46.3-10.5-64.4-27.5
		c-0.4-0.4-0.9-0.8-1-1.4c-2.4-7-3.9-14.3-4.7-21.7c3.9,1.5,7.6,3.1,11.4,4.3c29.5,9.4,58.1,6.9,85.8-6.7c1.6-0.8,2.6-0.7,4,0.2
		C114.9,116.3,125.6,127.6,134,142z"/>
</g>
</svg>
